<?xml version="1.0" encoding="UTF-8"?>
<svg xmlns="http://www.w3.org/2000/svg" xmlns:xlink="http://www.w3.org/1999/xlink" width="2100" height="2100" viewBox="0 0 2100 2100">

<path fill-rule="nonzero" fill="rgb(0%, 0%, 0%)" fill-opacity="1" d="M 1181.871094 960.460938 C 1180.238281 953.070312 1177.789062 945.210938 1174.578125 937.578125 C 1165.53125 916.121094 1129.378906 937.578125 1092.609375 937.578125 C 1055.828125 937.578125 1069.128906 1003.601562 1100.761719 1005.261719 C 1118.851562 1006.199219 1142.828125 1001.730469 1160.070312 997.75 C 1175.578125 994.160156 1185.558594 977.339844 1181.871094 960.460938 M 1635.488281 373.039062 C 1694.230469 462.179688 1636.128906 565.089844 1572.730469 571.890625 C 1527.359375 576.75 1450.109375 555.050781 1469.789062 453.941406 C 1469.789062 453.941406 1508.96875 485.289062 1534.570312 463.839844 C 1560.179688 442.378906 1548.121094 369.75 1507.460938 361.488281 C 1466.789062 353.25 1397.5 377.988281 1418.578125 490.238281 C 1439.671875 602.488281 1480.328125 576.078125 1447.210938 780.761719 C 1414.058594 985.441406 1237.828125 1020.101562 1216.738281 1025.050781 C 1216.738281 1025.050781 1412.570312 1010.210938 1462.269531 838.539062 C 1511.96875 666.859375 1468.730469 660.980469 1509.378906 616.429688 C 1543.890625 578.621094 1603.691406 630.210938 1599.71875 693.609375 C 1598.179688 718.160156 1564.949219 717.320312 1564.699219 692.710938 C 1564.699219 692.351562 1564.699219 691.988281 1564.699219 691.628906 C 1564.699219 655.320312 1537.578125 658.609375 1528.539062 693.28125 C 1519.511719 727.929688 1504.449219 902.910156 1409.539062 978.828125 C 1314.648438 1054.769531 1211.898438 1087.78125 1050.140625 1087.78125 L 1050.140625 878.140625 L 1109.800781 878.140625 C 1109.800781 878.140625 1171.558594 886.398438 1186.621094 835.230469 C 1201.679688 784.050781 1176.070312 737.851562 1151.980469 739.488281 C 1127.878906 741.140625 1119.398438 754.359375 1120.628906 774.148438 C 1121.851562 793.96875 1150.460938 782.421875 1153.488281 802.21875 C 1156.488281 822.039062 1135.398438 853.390625 1109.800781 835.230469 C 1084.191406 817.070312 1069.128906 779.019531 1100.761719 739.441406 C 1132.398438 699.871094 1185.109375 706.390625 1201.679688 739.441406 C 1201.679688 739.441406 1207.710938 666.859375 1261.929688 653.660156 C 1316.171875 640.449219 1358.328125 693.28125 1343.269531 742.800781 C 1328.199219 792.320312 1258.921875 805.609375 1239.339844 765.109375 C 1239.339844 765.109375 1302.601562 762.601562 1292.050781 719.691406 C 1281.511719 676.78125 1222.769531 691.710938 1222.769531 765.109375 L 1222.769531 855.050781 C 1222.769531 855.050781 1239.339844 830.28125 1272.46875 831.941406 C 1305.621094 833.570312 1337.238281 883.109375 1296.570312 919.410156 C 1255.898438 955.71875 1252.890625 914.460938 1270.980469 899.609375 C 1289.050781 884.738281 1225.78125 856.679688 1222.769531 881.449219 C 1219.769531 906.199219 1198.25 899.609375 1198.25 914.460938 C 1198.25 929.308594 1194.160156 972.238281 1246.871094 968.929688 C 1299.589844 965.640625 1341.769531 917.761719 1373.390625 871.550781 C 1405.03125 825.328125 1448.71875 663.558594 1414.058594 587.640625 C 1379.421875 511.699219 1370.378906 414.320312 1412.570312 364.800781 C 1454.730469 315.289062 1576.738281 283.910156 1635.488281 373.039062 "/>
<path fill-rule="nonzero" fill="rgb(0%, 0%, 0%)" fill-opacity="1" d="M 939.925781 997.75 C 957.171875 1001.730469 981.152344 1006.199219 999.238281 1005.261719 C 1030.871094 1003.601562 1044.179688 937.570312 1007.390625 937.570312 C 970.625 937.570312 934.472656 916.121094 925.421875 937.570312 C 922.203125 945.210938 919.757812 953.070312 918.128906 960.460938 C 914.433594 977.339844 924.425781 994.160156 939.925781 997.75 M 687.433594 364.800781 C 729.617188 414.320312 720.582031 511.699219 685.941406 587.640625 C 651.28125 663.558594 694.976562 825.328125 726.613281 871.550781 C 758.226562 917.761719 800.410156 965.640625 853.136719 968.929688 C 905.84375 972.238281 901.746094 929.308594 901.746094 914.460938 C 901.746094 899.609375 880.234375 906.199219 877.230469 881.449219 C 874.226562 856.679688 810.953125 884.738281 829.019531 899.609375 C 847.105469 914.460938 844.101562 955.71875 803.433594 919.410156 C 762.761719 883.109375 794.378906 833.570312 827.527344 831.941406 C 860.65625 830.28125 877.230469 855.050781 877.230469 855.050781 L 877.230469 765.109375 C 877.230469 691.710938 818.492188 676.78125 807.949219 719.691406 C 797.402344 762.601562 860.65625 765.109375 860.65625 765.109375 C 841.078125 805.609375 771.796875 792.320312 756.734375 742.800781 C 741.671875 693.28125 783.835938 640.449219 838.074219 653.660156 C 892.292969 666.859375 898.320312 739.441406 898.320312 739.441406 C 914.894531 706.390625 967.601562 699.871094 999.238281 739.441406 C 1030.871094 779.019531 1015.808594 817.058594 990.203125 835.230469 C 964.597656 853.390625 943.507812 822.039062 946.511719 802.21875 C 949.535156 782.421875 978.148438 793.96875 979.371094 774.148438 C 980.597656 754.359375 972.117188 741.140625 948.023438 739.488281 C 923.929688 737.851562 898.320312 784.050781 913.382812 835.230469 C 928.445312 886.398438 990.203125 878.140625 990.203125 878.140625 L 1049.859375 878.140625 L 1049.859375 1087.78125 C 888.101562 1087.78125 785.347656 1054.769531 690.460938 978.828125 C 595.550781 902.910156 580.488281 727.929688 571.453125 693.28125 C 562.421875 658.609375 535.304688 655.320312 535.304688 691.621094 C 535.304688 691.988281 535.300781 692.351562 535.296875 692.710938 C 535.050781 717.320312 501.820312 718.160156 500.28125 693.609375 C 496.3125 630.210938 556.113281 578.621094 590.617188 616.429688 C 631.265625 660.980469 588.03125 666.859375 637.730469 838.539062 C 687.433594 1010.199219 883.257812 1025.058594 883.257812 1025.058594 C 862.167969 1020.109375 685.941406 985.441406 652.792969 780.761719 C 619.664062 576.078125 660.335938 602.488281 681.425781 490.238281 C 702.496094 377.988281 633.214844 353.25 592.546875 361.488281 C 551.878906 369.75 539.820312 442.378906 565.425781 463.839844 C 591.035156 485.289062 630.210938 453.941406 630.210938 453.941406 C 649.890625 555.050781 572.640625 576.75 527.273438 571.890625 C 463.867188 565.089844 405.773438 462.179688 464.511719 373.050781 C 523.265625 283.910156 645.273438 315.28125 687.433594 364.800781 "/>
<path fill-rule="nonzero" fill="rgb(0%, 0%, 0%)" fill-opacity="1" d="M 1181.871094 1139.542969 C 1180.238281 1146.925781 1177.789062 1154.789062 1174.578125 1162.425781 C 1165.53125 1183.878906 1129.378906 1162.425781 1092.609375 1162.425781 C 1055.828125 1162.425781 1069.128906 1096.398438 1100.761719 1094.738281 C 1118.851562 1093.800781 1142.828125 1098.269531 1160.070312 1102.253906 C 1175.578125 1105.839844 1185.558594 1122.660156 1181.871094 1139.542969 M 1635.488281 1726.953125 C 1694.230469 1637.820312 1636.128906 1534.910156 1572.730469 1528.113281 C 1527.359375 1523.25 1450.109375 1544.949219 1469.789062 1646.0625 C 1469.789062 1646.0625 1508.96875 1614.707031 1534.570312 1636.160156 C 1560.179688 1657.617188 1548.121094 1730.246094 1507.460938 1738.511719 C 1466.789062 1746.753906 1397.5 1722.003906 1418.578125 1609.757812 C 1439.671875 1497.511719 1480.328125 1523.914062 1447.210938 1319.238281 C 1414.058594 1114.566406 1237.828125 1079.898438 1216.738281 1074.949219 C 1216.738281 1074.949219 1412.570312 1089.789062 1462.269531 1261.457031 C 1511.96875 1433.144531 1468.730469 1439.019531 1509.378906 1483.566406 C 1543.890625 1521.375 1603.691406 1469.785156 1599.71875 1406.390625 C 1598.179688 1381.835938 1564.949219 1382.679688 1564.699219 1407.292969 C 1564.699219 1407.652344 1564.699219 1408.011719 1564.699219 1408.375 C 1564.699219 1444.679688 1537.578125 1441.386719 1528.539062 1406.71875 C 1519.511719 1372.070312 1504.449219 1197.09375 1409.539062 1121.171875 C 1314.648438 1045.230469 1211.898438 1012.21875 1050.140625 1012.21875 L 1050.140625 1221.863281 L 1109.800781 1221.863281 C 1109.800781 1221.863281 1171.558594 1213.597656 1186.621094 1264.773438 C 1201.679688 1315.945312 1176.070312 1362.148438 1151.980469 1360.515625 C 1127.878906 1358.855469 1119.398438 1345.644531 1120.628906 1325.847656 C 1121.851562 1306.027344 1150.460938 1317.582031 1153.488281 1297.78125 C 1156.488281 1277.964844 1135.398438 1246.609375 1109.800781 1264.773438 C 1084.191406 1282.933594 1069.128906 1320.980469 1100.761719 1360.554688 C 1132.398438 1400.132812 1185.109375 1393.609375 1201.679688 1360.554688 C 1201.679688 1360.554688 1207.710938 1433.144531 1261.929688 1446.335938 C 1316.171875 1459.550781 1358.328125 1406.71875 1343.269531 1357.199219 C 1328.199219 1307.683594 1258.921875 1294.386719 1239.339844 1334.886719 C 1239.339844 1334.886719 1302.601562 1337.402344 1292.050781 1380.3125 C 1281.511719 1423.222656 1222.769531 1408.289062 1222.769531 1334.886719 L 1222.769531 1244.953125 C 1222.769531 1244.953125 1239.339844 1269.722656 1272.46875 1268.066406 C 1305.621094 1266.429688 1337.238281 1216.890625 1296.570312 1180.585938 C 1255.898438 1144.28125 1252.890625 1185.535156 1270.980469 1200.386719 C 1289.050781 1215.257812 1225.78125 1243.316406 1222.769531 1218.546875 C 1219.769531 1193.800781 1198.25 1200.386719 1198.25 1185.535156 C 1198.25 1170.6875 1194.160156 1127.753906 1246.871094 1131.070312 C 1299.589844 1134.363281 1341.769531 1182.242188 1373.390625 1228.445312 C 1405.03125 1274.671875 1448.71875 1436.4375 1414.058594 1512.359375 C 1379.421875 1588.300781 1370.378906 1685.679688 1412.570312 1735.195312 C 1454.730469 1784.714844 1576.738281 1816.089844 1635.488281 1726.953125 "/>
<path fill-rule="nonzero" fill="rgb(0%, 0%, 0%)" fill-opacity="1" d="M 939.925781 1102.253906 C 957.171875 1098.269531 981.152344 1093.800781 999.238281 1094.738281 C 1030.871094 1096.398438 1044.179688 1162.425781 1007.390625 1162.425781 C 970.625 1162.425781 934.472656 1183.878906 925.421875 1162.425781 C 922.203125 1154.789062 919.757812 1146.925781 918.128906 1139.542969 C 914.433594 1122.660156 924.425781 1105.839844 939.925781 1102.253906 M 687.433594 1735.195312 C 729.617188 1685.679688 720.582031 1588.300781 685.941406 1512.359375 C 651.28125 1436.4375 694.976562 1274.671875 726.613281 1228.445312 C 758.226562 1182.242188 800.410156 1134.363281 853.136719 1131.070312 C 905.84375 1127.757812 901.746094 1170.6875 901.746094 1185.535156 C 901.746094 1200.386719 880.234375 1193.800781 877.230469 1218.546875 C 874.226562 1243.316406 810.953125 1215.257812 829.019531 1200.386719 C 847.105469 1185.535156 844.101562 1144.28125 803.433594 1180.589844 C 762.761719 1216.890625 794.378906 1266.429688 827.527344 1268.066406 C 860.65625 1269.722656 877.230469 1244.953125 877.230469 1244.953125 L 877.230469 1334.886719 C 877.230469 1408.289062 818.492188 1423.222656 807.949219 1380.3125 C 797.402344 1337.402344 860.65625 1334.886719 860.65625 1334.886719 C 841.078125 1294.386719 771.796875 1307.683594 756.734375 1357.199219 C 741.671875 1406.71875 783.835938 1459.550781 838.074219 1446.335938 C 892.292969 1433.144531 898.320312 1360.554688 898.320312 1360.554688 C 914.894531 1393.609375 967.601562 1400.132812 999.238281 1360.554688 C 1030.871094 1320.980469 1015.808594 1282.933594 990.203125 1264.773438 C 964.597656 1246.609375 943.507812 1277.964844 946.511719 1297.785156 C 949.535156 1317.582031 978.148438 1306.027344 979.371094 1325.847656 C 980.597656 1345.644531 972.117188 1358.859375 948.023438 1360.515625 C 923.929688 1362.148438 898.320312 1315.945312 913.382812 1264.773438 C 928.445312 1213.597656 990.203125 1221.859375 990.203125 1221.859375 L 1049.859375 1221.859375 L 1049.859375 1012.21875 C 888.101562 1012.21875 785.347656 1045.230469 690.460938 1121.171875 C 595.550781 1197.09375 580.488281 1372.070312 571.453125 1406.71875 C 562.421875 1441.386719 535.304688 1444.679688 535.304688 1408.375 C 535.304688 1408.011719 535.300781 1407.648438 535.296875 1407.292969 C 535.050781 1382.679688 501.820312 1381.835938 500.28125 1406.394531 C 496.3125 1469.785156 556.113281 1521.375 590.617188 1483.566406 C 631.265625 1439.019531 588.03125 1433.144531 637.730469 1261.460938 C 687.433594 1089.800781 883.257812 1074.941406 883.257812 1074.941406 C 862.167969 1079.890625 685.941406 1114.5625 652.792969 1319.238281 C 619.664062 1523.914062 660.335938 1497.507812 681.425781 1609.757812 C 702.496094 1722.007812 633.214844 1746.753906 592.546875 1738.511719 C 551.878906 1730.246094 539.820312 1657.617188 565.425781 1636.160156 C 591.035156 1614.707031 630.210938 1646.0625 630.210938 1646.0625 C 649.890625 1544.949219 572.640625 1523.25 527.273438 1528.113281 C 463.867188 1534.910156 405.773438 1637.820312 464.511719 1726.953125 C 523.265625 1816.089844 645.273438 1784.714844 687.433594 1735.195312 "/>
</svg>
